<svg width="170" height="50" viewBox="0 0 170 50" fill="none" xmlns="http://www.w3.org/2000/svg">
<path d="M25 41.1406C24.5856 41.1406 24.1882 40.976 23.8951 40.683C23.6021 40.39 23.4375 39.9925 23.4375 39.5781V13.5469C23.4375 13.1325 23.6021 12.735 23.8951 12.442C24.1882 12.149 24.5856 11.9844 25 11.9844C25.4144 11.9844 25.8118 12.149 26.1049 12.442C26.3979 12.735 26.5625 13.1325 26.5625 13.5469V39.5781C26.5625 39.9925 26.3979 40.39 26.1049 40.683C25.8118 40.976 25.4144 41.1406 25 41.1406Z" fill="#D6B5B0"/>
<path d="M25 11.9844C24.7234 11.992 24.4538 12.0728 24.2188 12.2188C24.4526 12.3537 24.6476 12.547 24.7845 12.7798C24.9214 13.0126 24.9957 13.2769 25 13.5469V39.5781C24.9957 39.8481 24.9214 40.1124 24.7845 40.3452C24.6476 40.578 24.4526 40.7713 24.2188 40.9063C24.4538 41.0522 24.7234 41.133 25 41.1406C25.4144 41.1406 25.8118 40.976 26.1049 40.683C26.3979 40.39 26.5625 39.9925 26.5625 39.5781V13.5469C26.5625 13.1325 26.3979 12.735 26.1049 12.442C25.8118 12.149 25.4144 11.9844 25 11.9844Z" fill="#C4A19D"/>
<path d="M40.625 1.5625H35.4219C32.2447 1.56663 29.1988 2.8306 26.9522 5.07721C24.7056 7.32382 23.4416 10.3697 23.4375 13.5469C23.4375 13.9613 23.6021 14.3587 23.8951 14.6517C24.1882 14.9448 24.5856 15.1094 25 15.1094H30.2031C33.3803 15.1052 36.4262 13.8413 38.6728 11.5947C40.9194 9.34806 42.1834 6.30218 42.1875 3.125C42.1875 2.7106 42.0229 2.31317 41.7299 2.02015C41.4368 1.72712 41.0394 1.5625 40.625 1.5625Z" fill="#228B22"/>
<path d="M14.5781 1.5625H9.375C8.9606 1.5625 8.56317 1.72712 8.27015 2.02015C7.97712 2.31317 7.8125 2.7106 7.8125 3.125C7.81663 6.30218 9.0806 9.34806 11.3272 11.5947C13.5738 13.8413 16.6197 15.1052 19.7969 15.1094H26.5625C26.7704 13.4123 26.6157 11.6904 26.1084 10.0576C25.6012 8.42483 24.7532 6.91833 23.6203 5.63775C22.4874 4.35717 21.0956 3.33171 19.5368 2.62918C17.978 1.92666 16.2879 1.56308 14.5781 1.5625V1.5625Z" fill="#228B22"/>
<path d="M25 25C18.784 25 12.8226 27.4693 8.42718 31.8647C4.0318 36.2601 1.5625 42.2215 1.5625 48.4375H48.4375C48.4375 42.2215 45.9682 36.2601 41.5728 31.8647C37.1774 27.4693 31.216 25 25 25V25Z" fill="#87CEEB"/>
<path d="M15.125 43.4687C15.1221 42.7304 15.2167 41.9949 15.4062 41.2813C15.9656 39.2369 15.9787 37.0815 15.444 35.0305C14.9093 32.9795 13.8457 31.1048 12.3594 29.5938L11.8437 29.0625C8.67978 31.2085 6.08882 34.096 4.29678 37.4731C2.50474 40.8502 1.56603 44.6144 1.5625 48.4375H16.8125C15.7222 47.0101 15.1294 45.2649 15.125 43.4687V43.4687ZM30.2656 36.4688C30.2637 37.1242 30.2009 37.778 30.0781 38.4219C29.9085 39.2327 29.9142 40.0704 30.0948 40.8788C30.2753 41.6872 30.6266 42.4478 31.125 43.1094C31.6242 43.7743 32.2579 44.3267 32.9848 44.7305C33.7117 45.1343 34.5154 45.3805 35.3438 45.4531L38.2656 45.6875C38.7001 45.7259 39.1125 45.8961 39.4476 46.1753C39.7827 46.4546 40.0245 46.8295 40.1406 47.25C40.2529 47.6641 40.4156 48.0629 40.625 48.4375H48.4375C48.4375 42.2215 45.9682 36.2601 41.5728 31.8647C37.1774 27.4693 31.216 25 25 25C24.2344 25 23.4375 25 22.7187 25.1094L27.4063 29.6406C28.317 30.5284 29.0396 31.5905 29.5309 32.7637C30.0221 33.9368 30.272 35.1969 30.2656 36.4688V36.4688Z" fill="#097969"/>
<path d="M43.5625 45.6094C43.5633 46.5552 43.5007 47.5 43.375 48.4375H48.4375C48.4375 47.7031 48.4375 47 48.3281 46.2813C48.3281 46.0781 48.3281 45.8594 48.25 45.6562C48.1875 45.125 48.1094 44.6042 48.0156 44.0937C48.0156 43.8906 48.0156 43.6875 47.9062 43.4844C47.75 42.7969 47.5937 42.125 47.3906 41.4688C47.189 40.8217 46.9543 40.1855 46.6875 39.5625C46.6094 39.3594 46.5312 39.1719 46.4375 38.9844C46.2344 38.5313 46.0156 38.0781 45.7812 37.6406L45.5 37.0938C45.1719 36.5 44.8281 35.9219 44.4531 35.3594C44.089 34.8192 43.6979 34.2977 43.2813 33.7969C43.1543 33.6285 43.0187 33.4668 42.875 33.3125C42.5625 32.9375 42.2344 32.5781 41.8906 32.2344C41.7528 32.0758 41.6068 31.9245 41.4531 31.7813C40.9844 31.3125 40.4844 30.8594 39.9844 30.4375L39.875 30.3594C39.3906 29.9531 38.875 29.5781 38.3125 29.2188L37.7656 28.8594C37.3594 28.5937 36.9531 28.3438 36.5312 28.1094L35.9687 27.7969C35.375 27.4844 34.7656 27.1875 34.1562 26.9219C37.0644 29.0954 39.4279 31.9148 41.0602 35.1578C42.6926 38.4009 43.5492 41.9787 43.5625 45.6094V45.6094Z" fill="#097969"/>
<path d="M64.5117 23.7812V38H61.084V23.7812H64.5117ZM70.0391 29.6992V32.3359H63.5352V29.6992H70.0391ZM70.5957 23.7812V26.4277H63.5352V23.7812H70.5957ZM73.2402 32.8242V32.6191C73.2402 31.8444 73.3509 31.1315 73.5723 30.4805C73.7936 29.8229 74.1191 29.2533 74.5488 28.7715C74.9785 28.2897 75.5091 27.9154 76.1406 27.6484C76.7721 27.375 77.5013 27.2383 78.3281 27.2383C79.1615 27.2383 79.8939 27.375 80.5254 27.6484C81.1634 27.9154 81.6973 28.2897 82.127 28.7715C82.5566 29.2533 82.8822 29.8229 83.1035 30.4805C83.3249 31.1315 83.4355 31.8444 83.4355 32.6191V32.8242C83.4355 33.5924 83.3249 34.3053 83.1035 34.9629C82.8822 35.6139 82.5566 36.1836 82.127 36.6719C81.6973 37.1536 81.1667 37.528 80.5352 37.7949C79.9036 38.0618 79.1745 38.1953 78.3477 38.1953C77.5208 38.1953 76.7884 38.0618 76.1504 37.7949C75.5124 37.528 74.9785 37.1536 74.5488 36.6719C74.1191 36.1836 73.7936 35.6139 73.5723 34.9629C73.3509 34.3053 73.2402 33.5924 73.2402 32.8242ZM76.5312 32.6191V32.8242C76.5312 33.2214 76.5605 33.5924 76.6191 33.9375C76.6777 34.2826 76.7754 34.5853 76.9121 34.8457C77.0488 35.0996 77.2344 35.2982 77.4688 35.4414C77.7031 35.5846 77.9961 35.6562 78.3477 35.6562C78.6927 35.6562 78.9792 35.5846 79.207 35.4414C79.4414 35.2982 79.627 35.0996 79.7637 34.8457C79.9004 34.5853 79.998 34.2826 80.0566 33.9375C80.1152 33.5924 80.1445 33.2214 80.1445 32.8242V32.6191C80.1445 32.235 80.1152 31.8737 80.0566 31.5352C79.998 31.1901 79.9004 30.8874 79.7637 30.627C79.627 30.36 79.4414 30.1517 79.207 30.002C78.9727 29.8522 78.6797 29.7773 78.3281 29.7773C77.9831 29.7773 77.6934 29.8522 77.459 30.002C77.2311 30.1517 77.0488 30.36 76.9121 30.627C76.7754 30.8874 76.6777 31.1901 76.6191 31.5352C76.5605 31.8737 76.5312 32.235 76.5312 32.6191ZM86.4902 32.8242V32.6191C86.4902 31.8444 86.6009 31.1315 86.8223 30.4805C87.0436 29.8229 87.3691 29.2533 87.7988 28.7715C88.2285 28.2897 88.7591 27.9154 89.3906 27.6484C90.0221 27.375 90.7513 27.2383 91.5781 27.2383C92.4115 27.2383 93.1439 27.375 93.7754 27.6484C94.4134 27.9154 94.9473 28.2897 95.377 28.7715C95.8066 29.2533 96.1322 29.8229 96.3535 30.4805C96.5749 31.1315 96.6855 31.8444 96.6855 32.6191V32.8242C96.6855 33.5924 96.5749 34.3053 96.3535 34.9629C96.1322 35.6139 95.8066 36.1836 95.377 36.6719C94.9473 37.1536 94.4167 37.528 93.7852 37.7949C93.1536 38.0618 92.4245 38.1953 91.5977 38.1953C90.7708 38.1953 90.0384 38.0618 89.4004 37.7949C88.7624 37.528 88.2285 37.1536 87.7988 36.6719C87.3691 36.1836 87.0436 35.6139 86.8223 34.9629C86.6009 34.3053 86.4902 33.5924 86.4902 32.8242ZM89.7812 32.6191V32.8242C89.7812 33.2214 89.8105 33.5924 89.8691 33.9375C89.9277 34.2826 90.0254 34.5853 90.1621 34.8457C90.2988 35.0996 90.4844 35.2982 90.7188 35.4414C90.9531 35.5846 91.2461 35.6562 91.5977 35.6562C91.9427 35.6562 92.2292 35.5846 92.457 35.4414C92.6914 35.2982 92.877 35.0996 93.0137 34.8457C93.1504 34.5853 93.248 34.2826 93.3066 33.9375C93.3652 33.5924 93.3945 33.2214 93.3945 32.8242V32.6191C93.3945 32.235 93.3652 31.8737 93.3066 31.5352C93.248 31.1901 93.1504 30.8874 93.0137 30.627C92.877 30.36 92.6914 30.1517 92.457 30.002C92.2227 29.8522 91.9297 29.7773 91.5781 29.7773C91.2331 29.7773 90.9434 29.8522 90.709 30.002C90.4811 30.1517 90.2988 30.36 90.1621 30.627C90.0254 30.8874 89.9277 31.1901 89.8691 31.5352C89.8105 31.8737 89.7812 32.235 89.7812 32.6191ZM106.225 35.5781V23H109.535V38H106.566L106.225 35.5781ZM99.7402 32.8438V32.6387C99.7402 31.8379 99.8281 31.1087 100.004 30.4512C100.18 29.7871 100.44 29.2174 100.785 28.7422C101.13 28.2604 101.56 27.8893 102.074 27.6289C102.589 27.3685 103.181 27.2383 103.852 27.2383C104.451 27.2383 104.975 27.3783 105.424 27.6582C105.873 27.9316 106.257 28.3158 106.576 28.8105C106.895 29.3053 107.156 29.8848 107.357 30.5488C107.559 31.2064 107.712 31.916 107.816 32.6777V32.9219C107.712 33.638 107.559 34.3151 107.357 34.9531C107.156 35.5846 106.895 36.1445 106.576 36.6328C106.257 37.1211 105.87 37.5052 105.414 37.7852C104.965 38.0586 104.438 38.1953 103.832 38.1953C103.161 38.1953 102.569 38.0618 102.055 37.7949C101.547 37.528 101.12 37.1536 100.775 36.6719C100.437 36.1901 100.18 35.6237 100.004 34.9727C99.8281 34.3216 99.7402 33.612 99.7402 32.8438ZM103.031 32.6387V32.8438C103.031 33.2409 103.057 33.6087 103.109 33.9473C103.161 34.2858 103.249 34.5853 103.373 34.8457C103.503 35.0996 103.673 35.2982 103.881 35.4414C104.096 35.5846 104.359 35.6562 104.672 35.6562C105.095 35.6562 105.443 35.5553 105.717 35.3535C105.997 35.1517 106.202 34.8652 106.332 34.4941C106.469 34.123 106.527 33.6868 106.508 33.1855V32.4141C106.521 31.9844 106.492 31.6068 106.42 31.2812C106.348 30.9492 106.234 30.6725 106.078 30.4512C105.928 30.2298 105.736 30.0638 105.502 29.9531C105.274 29.8359 105.004 29.7773 104.691 29.7773C104.385 29.7773 104.125 29.849 103.91 29.9922C103.702 30.1354 103.533 30.3372 103.402 30.5977C103.272 30.8516 103.178 31.1543 103.119 31.5059C103.061 31.8509 103.031 32.2285 103.031 32.6387ZM120.441 23.7812V38H117.014V23.7812H120.441ZM124.719 23.7812V26.4277H112.834V23.7812H124.719ZM125.557 32.8242V32.6191C125.557 31.8444 125.667 31.1315 125.889 30.4805C126.11 29.8229 126.436 29.2533 126.865 28.7715C127.295 28.2897 127.826 27.9154 128.457 27.6484C129.089 27.375 129.818 27.2383 130.645 27.2383C131.478 27.2383 132.21 27.375 132.842 27.6484C133.48 27.9154 134.014 28.2897 134.443 28.7715C134.873 29.2533 135.199 29.8229 135.42 30.4805C135.641 31.1315 135.752 31.8444 135.752 32.6191V32.8242C135.752 33.5924 135.641 34.3053 135.42 34.9629C135.199 35.6139 134.873 36.1836 134.443 36.6719C134.014 37.1536 133.483 37.528 132.852 37.7949C132.22 38.0618 131.491 38.1953 130.664 38.1953C129.837 38.1953 129.105 38.0618 128.467 37.7949C127.829 37.528 127.295 37.1536 126.865 36.6719C126.436 36.1836 126.11 35.6139 125.889 34.9629C125.667 34.3053 125.557 33.5924 125.557 32.8242ZM128.848 32.6191V32.8242C128.848 33.2214 128.877 33.5924 128.936 33.9375C128.994 34.2826 129.092 34.5853 129.229 34.8457C129.365 35.0996 129.551 35.2982 129.785 35.4414C130.02 35.5846 130.312 35.6562 130.664 35.6562C131.009 35.6562 131.296 35.5846 131.523 35.4414C131.758 35.2982 131.943 35.0996 132.08 34.8457C132.217 34.5853 132.314 34.2826 132.373 33.9375C132.432 33.5924 132.461 33.2214 132.461 32.8242V32.6191C132.461 32.235 132.432 31.8737 132.373 31.5352C132.314 31.1901 132.217 30.8874 132.08 30.627C131.943 30.36 131.758 30.1517 131.523 30.002C131.289 29.8522 130.996 29.7773 130.645 29.7773C130.299 29.7773 130.01 29.8522 129.775 30.002C129.548 30.1517 129.365 30.36 129.229 30.627C129.092 30.8874 128.994 31.1901 128.936 31.5352C128.877 31.8737 128.848 32.235 128.848 32.6191ZM142.537 29.4648V42.0625H139.246V27.4336H142.312L142.537 29.4648ZM149.021 32.5898V32.7949C149.021 33.5632 148.934 34.276 148.758 34.9336C148.582 35.5911 148.322 36.1641 147.977 36.6523C147.632 37.1406 147.202 37.5215 146.688 37.7949C146.18 38.0618 145.59 38.1953 144.92 38.1953C144.288 38.1953 143.745 38.0553 143.289 37.7754C142.833 37.4954 142.452 37.1081 142.146 36.6133C141.84 36.1185 141.593 35.5521 141.404 34.9141C141.215 34.276 141.066 33.6022 140.955 32.8926V32.6289C141.066 31.8672 141.215 31.1608 141.404 30.5098C141.593 29.8522 141.84 29.2793 142.146 28.791C142.452 28.3027 142.83 27.9219 143.279 27.6484C143.735 27.375 144.279 27.2383 144.91 27.2383C145.581 27.2383 146.17 27.3652 146.678 27.6191C147.192 27.873 147.622 28.2376 147.967 28.7129C148.318 29.1816 148.582 29.7448 148.758 30.4023C148.934 31.0599 149.021 31.7891 149.021 32.5898ZM145.73 32.7949V32.5898C145.73 32.1797 145.701 31.8053 145.643 31.4668C145.584 31.1217 145.49 30.8223 145.359 30.5684C145.236 30.3145 145.07 30.1191 144.861 29.9824C144.653 29.8457 144.396 29.7773 144.09 29.7773C143.738 29.7773 143.442 29.8327 143.201 29.9434C142.967 30.0475 142.778 30.2103 142.635 30.4316C142.498 30.6465 142.4 30.9167 142.342 31.2422C142.29 31.5612 142.267 31.9355 142.273 32.3652V33.166C142.26 33.6608 142.309 34.097 142.42 34.4746C142.531 34.8457 142.723 35.1354 142.996 35.3438C143.27 35.5521 143.641 35.6562 144.109 35.6562C144.422 35.6562 144.682 35.5846 144.891 35.4414C145.099 35.2917 145.265 35.0866 145.389 34.8262C145.512 34.5592 145.6 34.2533 145.652 33.9082C145.704 33.5632 145.73 33.1921 145.73 32.7949ZM155.963 27.4336V38H152.662V27.4336H155.963ZM152.467 24.709C152.467 24.2402 152.636 23.8561 152.975 23.5566C153.313 23.2572 153.753 23.1074 154.293 23.1074C154.833 23.1074 155.273 23.2572 155.611 23.5566C155.95 23.8561 156.119 24.2402 156.119 24.709C156.119 25.1777 155.95 25.5618 155.611 25.8613C155.273 26.1608 154.833 26.3105 154.293 26.3105C153.753 26.3105 153.313 26.1608 152.975 25.8613C152.636 25.5618 152.467 25.1777 152.467 24.709ZM165.482 35.3438V30.9883C165.482 30.6888 165.44 30.4316 165.355 30.2168C165.271 30.002 165.137 29.8359 164.955 29.7188C164.773 29.5951 164.529 29.5332 164.223 29.5332C163.975 29.5332 163.764 29.5755 163.588 29.6602C163.412 29.7448 163.279 29.8717 163.188 30.041C163.096 30.2103 163.051 30.4251 163.051 30.6855H159.76C159.76 30.1973 159.867 29.7448 160.082 29.3281C160.303 28.9049 160.616 28.5371 161.02 28.2246C161.43 27.9121 161.918 27.6712 162.484 27.502C163.057 27.3262 163.695 27.2383 164.398 27.2383C165.238 27.2383 165.987 27.3783 166.645 27.6582C167.309 27.9382 167.833 28.3581 168.217 28.918C168.601 29.4714 168.793 30.168 168.793 31.0078V35.334C168.793 36.0241 168.832 36.5482 168.91 36.9062C168.988 37.2578 169.099 37.5671 169.242 37.834V38H165.941C165.785 37.6745 165.668 37.2773 165.59 36.8086C165.518 36.3333 165.482 35.8451 165.482 35.3438ZM165.883 31.5449L165.902 33.3027H164.447C164.141 33.3027 163.881 33.3451 163.666 33.4297C163.458 33.5143 163.288 33.6315 163.158 33.7812C163.035 33.9245 162.943 34.0872 162.885 34.2695C162.833 34.4518 162.807 34.6439 162.807 34.8457C162.807 35.041 162.852 35.2168 162.943 35.373C163.041 35.5228 163.171 35.64 163.334 35.7246C163.497 35.8092 163.679 35.8516 163.881 35.8516C164.245 35.8516 164.555 35.7832 164.809 35.6465C165.069 35.5033 165.268 35.3307 165.404 35.1289C165.541 34.9271 165.609 34.7383 165.609 34.5625L166.332 35.9102C166.202 36.1706 166.052 36.4342 165.883 36.7012C165.72 36.9681 165.515 37.2155 165.268 37.4434C165.027 37.6647 164.73 37.847 164.379 37.9902C164.027 38.127 163.601 38.1953 163.1 38.1953C162.449 38.1953 161.85 38.0618 161.303 37.7949C160.762 37.528 160.329 37.1569 160.004 36.6816C159.678 36.1999 159.516 35.6465 159.516 35.0215C159.516 34.4746 159.613 33.9863 159.809 33.5566C160.01 33.127 160.313 32.7624 160.717 32.4629C161.12 32.1634 161.635 31.9355 162.26 31.7793C162.885 31.623 163.62 31.5449 164.467 31.5449H165.883Z" fill="#228B22"/>
</svg>
