<svg width="168" height="52" viewBox="0 0 168 52" fill="none" xmlns="http://www.w3.org/2000/svg">
<path d="M25 41.1406C24.5856 41.1406 24.1882 40.976 23.8951 40.683C23.6021 40.39 23.4375 39.9925 23.4375 39.5781V13.5469C23.4375 13.1325 23.6021 12.735 23.8951 12.442C24.1882 12.149 24.5856 11.9844 25 11.9844C25.4144 11.9844 25.8118 12.149 26.1049 12.442C26.3979 12.735 26.5625 13.1325 26.5625 13.5469V39.5781C26.5625 39.9925 26.3979 40.39 26.1049 40.683C25.8118 40.976 25.4144 41.1406 25 41.1406Z" fill="#D6B5B0"/>
<path d="M25 11.9844C24.7234 11.992 24.4538 12.0728 24.2188 12.2188C24.4526 12.3537 24.6476 12.547 24.7845 12.7798C24.9214 13.0126 24.9957 13.2769 25 13.5469V39.5781C24.9957 39.8481 24.9214 40.1124 24.7845 40.3452C24.6476 40.578 24.4526 40.7713 24.2188 40.9062C24.4538 41.0522 24.7234 41.133 25 41.1406C25.4144 41.1406 25.8118 40.976 26.1049 40.683C26.3979 40.39 26.5625 39.9925 26.5625 39.5781V13.5469C26.5625 13.1325 26.3979 12.735 26.1049 12.442C25.8118 12.149 25.4144 11.9844 25 11.9844Z" fill="#C4A19D"/>
<path d="M40.625 1.5625H35.4219C32.2447 1.56663 29.1988 2.8306 26.9522 5.07721C24.7056 7.32382 23.4416 10.3697 23.4375 13.5469C23.4375 13.9613 23.6021 14.3587 23.8951 14.6517C24.1882 14.9448 24.5856 15.1094 25 15.1094H30.2031C33.3803 15.1052 36.4262 13.8413 38.6728 11.5947C40.9194 9.34806 42.1834 6.30218 42.1875 3.125C42.1875 2.7106 42.0229 2.31317 41.7299 2.02015C41.4368 1.72712 41.0394 1.5625 40.625 1.5625Z" fill="#228B22"/>
<path d="M14.5781 1.5625H9.375C8.9606 1.5625 8.56317 1.72712 8.27015 2.02015C7.97712 2.31317 7.8125 2.7106 7.8125 3.125C7.81663 6.30218 9.0806 9.34806 11.3272 11.5947C13.5738 13.8413 16.6197 15.1052 19.7969 15.1094H26.5625C26.7704 13.4123 26.6157 11.6904 26.1084 10.0576C25.6012 8.42483 24.7532 6.91833 23.6203 5.63775C22.4874 4.35717 21.0956 3.33171 19.5368 2.62918C17.978 1.92666 16.2879 1.56308 14.5781 1.5625Z" fill="#228B22"/>
<path d="M25 25C18.784 25 12.8226 27.4693 8.42719 31.8647C4.0318 36.2601 1.5625 42.2215 1.5625 48.4375H48.4375C48.4375 42.2215 45.9682 36.2601 41.5728 31.8647C37.1774 27.4693 31.216 25 25 25Z" fill="#87CEEB"/>
<path d="M15.125 43.4688C15.1221 42.7304 15.2167 41.9949 15.4062 41.2812C15.9656 39.2369 15.9787 37.0815 15.444 35.0305C14.9093 32.9795 13.8457 31.1048 12.3594 29.5938L11.8438 29.0625C8.67978 31.2085 6.08882 34.096 4.29678 37.4731C2.50474 40.8502 1.56603 44.6144 1.5625 48.4375H16.8125C15.7222 47.0101 15.1294 45.2649 15.125 43.4688ZM30.2656 36.4688C30.2637 37.1242 30.2009 37.778 30.0781 38.4219C29.9085 39.2327 29.9142 40.0704 30.0948 40.8788C30.2753 41.6873 30.6266 42.4478 31.125 43.1094C31.6242 43.7743 32.2579 44.3267 32.9848 44.7305C33.7117 45.1343 34.5154 45.3805 35.3438 45.4531L38.2656 45.6875C38.7001 45.7259 39.1125 45.8961 39.4476 46.1753C39.7827 46.4546 40.0245 46.8295 40.1406 47.25C40.2529 47.6641 40.4156 48.0629 40.625 48.4375H48.4375C48.4375 42.2215 45.9682 36.2601 41.5728 31.8647C37.1774 27.4693 31.216 25 25 25C24.2344 25 23.4375 25 22.7188 25.1094L27.4063 29.6406C28.317 30.5284 29.0396 31.5905 29.5309 32.7637C30.0221 33.9368 30.272 35.1969 30.2656 36.4688Z" fill="#097969"/>
<path d="M43.5625 45.6094C43.5633 46.5552 43.5007 47.5 43.375 48.4375H48.4375C48.4375 47.7031 48.4375 47 48.3281 46.2813C48.3281 46.0781 48.3281 45.8594 48.25 45.6562C48.1875 45.125 48.1094 44.6042 48.0156 44.0938C48.0156 43.8906 48.0156 43.6875 47.9062 43.4844C47.75 42.7969 47.5937 42.125 47.3906 41.4688C47.189 40.8217 46.9543 40.1855 46.6875 39.5625C46.6094 39.3594 46.5312 39.1719 46.4375 38.9844C46.2344 38.5313 46.0156 38.0781 45.7812 37.6406L45.5 37.0938C45.1719 36.5 44.8281 35.9219 44.4531 35.3594C44.089 34.8192 43.6979 34.2977 43.2812 33.7969C43.1543 33.6285 43.0187 33.4668 42.875 33.3125C42.5625 32.9375 42.2344 32.5781 41.8906 32.2344C41.7528 32.0758 41.6068 31.9245 41.4531 31.7813C40.9844 31.3125 40.4844 30.8594 39.9844 30.4375L39.875 30.3594C39.3906 29.9531 38.875 29.5781 38.3125 29.2188L37.7656 28.8594C37.3594 28.5937 36.9531 28.3438 36.5312 28.1094L35.9687 27.7969C35.375 27.4844 34.7656 27.1875 34.1562 26.9219C37.0644 29.0954 39.4279 31.9148 41.0602 35.1578C42.6926 38.4009 43.5492 41.9787 43.5625 45.6094Z" fill="#097969"/>
<path d="M62.5117 32.7812V47H59.084V32.7812H62.5117ZM68.0391 38.6992V41.3359H61.5352V38.6992H68.0391ZM68.5957 32.7812V35.4277H61.5352V32.7812H68.5957ZM71.2402 41.8242V41.6191C71.2402 40.8444 71.3509 40.1315 71.5723 39.4805C71.7936 38.8229 72.1191 38.2533 72.5488 37.7715C72.9785 37.2897 73.5091 36.9154 74.1406 36.6484C74.7721 36.375 75.5013 36.2383 76.3281 36.2383C77.1615 36.2383 77.8939 36.375 78.5254 36.6484C79.1634 36.9154 79.6973 37.2897 80.127 37.7715C80.5566 38.2533 80.8822 38.8229 81.1035 39.4805C81.3249 40.1315 81.4355 40.8444 81.4355 41.6191V41.8242C81.4355 42.5924 81.3249 43.3053 81.1035 43.9629C80.8822 44.6139 80.5566 45.1836 80.127 45.6719C79.6973 46.1536 79.1667 46.528 78.5352 46.7949C77.9036 47.0618 77.1745 47.1953 76.3477 47.1953C75.5208 47.1953 74.7884 47.0618 74.1504 46.7949C73.5124 46.528 72.9785 46.1536 72.5488 45.6719C72.1191 45.1836 71.7936 44.6139 71.5723 43.9629C71.3509 43.3053 71.2402 42.5924 71.2402 41.8242ZM74.5312 41.6191V41.8242C74.5312 42.2214 74.5605 42.5924 74.6191 42.9375C74.6777 43.2826 74.7754 43.5853 74.9121 43.8457C75.0488 44.0996 75.2344 44.2982 75.4688 44.4414C75.7031 44.5846 75.9961 44.6562 76.3477 44.6562C76.6927 44.6562 76.9792 44.5846 77.207 44.4414C77.4414 44.2982 77.627 44.0996 77.7637 43.8457C77.9004 43.5853 77.998 43.2826 78.0566 42.9375C78.1152 42.5924 78.1445 42.2214 78.1445 41.8242V41.6191C78.1445 41.235 78.1152 40.8737 78.0566 40.5352C77.998 40.1901 77.9004 39.8874 77.7637 39.627C77.627 39.36 77.4414 39.1517 77.207 39.002C76.9727 38.8522 76.6797 38.7773 76.3281 38.7773C75.9831 38.7773 75.6934 38.8522 75.459 39.002C75.2311 39.1517 75.0488 39.36 74.9121 39.627C74.7754 39.8874 74.6777 40.1901 74.6191 40.5352C74.5605 40.8737 74.5312 41.235 74.5312 41.6191ZM84.4902 41.8242V41.6191C84.4902 40.8444 84.6009 40.1315 84.8223 39.4805C85.0436 38.8229 85.3691 38.2533 85.7988 37.7715C86.2285 37.2897 86.7591 36.9154 87.3906 36.6484C88.0221 36.375 88.7513 36.2383 89.5781 36.2383C90.4115 36.2383 91.1439 36.375 91.7754 36.6484C92.4134 36.9154 92.9473 37.2897 93.377 37.7715C93.8066 38.2533 94.1322 38.8229 94.3535 39.4805C94.5749 40.1315 94.6855 40.8444 94.6855 41.6191V41.8242C94.6855 42.5924 94.5749 43.3053 94.3535 43.9629C94.1322 44.6139 93.8066 45.1836 93.377 45.6719C92.9473 46.1536 92.4167 46.528 91.7852 46.7949C91.1536 47.0618 90.4245 47.1953 89.5977 47.1953C88.7708 47.1953 88.0384 47.0618 87.4004 46.7949C86.7624 46.528 86.2285 46.1536 85.7988 45.6719C85.3691 45.1836 85.0436 44.6139 84.8223 43.9629C84.6009 43.3053 84.4902 42.5924 84.4902 41.8242ZM87.7812 41.6191V41.8242C87.7812 42.2214 87.8105 42.5924 87.8691 42.9375C87.9277 43.2826 88.0254 43.5853 88.1621 43.8457C88.2988 44.0996 88.4844 44.2982 88.7188 44.4414C88.9531 44.5846 89.2461 44.6562 89.5977 44.6562C89.9427 44.6562 90.2292 44.5846 90.457 44.4414C90.6914 44.2982 90.877 44.0996 91.0137 43.8457C91.1504 43.5853 91.248 43.2826 91.3066 42.9375C91.3652 42.5924 91.3945 42.2214 91.3945 41.8242V41.6191C91.3945 41.235 91.3652 40.8737 91.3066 40.5352C91.248 40.1901 91.1504 39.8874 91.0137 39.627C90.877 39.36 90.6914 39.1517 90.457 39.002C90.2227 38.8522 89.9297 38.7773 89.5781 38.7773C89.2331 38.7773 88.9434 38.8522 88.709 39.002C88.4811 39.1517 88.2988 39.36 88.1621 39.627C88.0254 39.8874 87.9277 40.1901 87.8691 40.5352C87.8105 40.8737 87.7812 41.235 87.7812 41.6191ZM104.225 44.5781V32H107.535V47H104.566L104.225 44.5781ZM97.7402 41.8438V41.6387C97.7402 40.8379 97.8281 40.1087 98.0039 39.4512C98.1797 38.7871 98.4401 38.2174 98.7852 37.7422C99.1302 37.2604 99.5599 36.8893 100.074 36.6289C100.589 36.3685 101.181 36.2383 101.852 36.2383C102.451 36.2383 102.975 36.3783 103.424 36.6582C103.873 36.9316 104.257 37.3158 104.576 37.8105C104.895 38.3053 105.156 38.8848 105.357 39.5488C105.559 40.2064 105.712 40.916 105.816 41.6777V41.9219C105.712 42.638 105.559 43.3151 105.357 43.9531C105.156 44.5846 104.895 45.1445 104.576 45.6328C104.257 46.1211 103.87 46.5052 103.414 46.7852C102.965 47.0586 102.438 47.1953 101.832 47.1953C101.161 47.1953 100.569 47.0618 100.055 46.7949C99.5469 46.528 99.1204 46.1536 98.7754 45.6719C98.4368 45.1901 98.1797 44.6237 98.0039 43.9727C97.8281 43.3216 97.7402 42.612 97.7402 41.8438ZM101.031 41.6387V41.8438C101.031 42.2409 101.057 42.6087 101.109 42.9473C101.161 43.2858 101.249 43.5853 101.373 43.8457C101.503 44.0996 101.673 44.2982 101.881 44.4414C102.096 44.5846 102.359 44.6562 102.672 44.6562C103.095 44.6562 103.443 44.5553 103.717 44.3535C103.997 44.1517 104.202 43.8652 104.332 43.4941C104.469 43.123 104.527 42.6868 104.508 42.1855V41.4141C104.521 40.9844 104.492 40.6068 104.42 40.2812C104.348 39.9492 104.234 39.6725 104.078 39.4512C103.928 39.2298 103.736 39.0638 103.502 38.9531C103.274 38.8359 103.004 38.7773 102.691 38.7773C102.385 38.7773 102.125 38.849 101.91 38.9922C101.702 39.1354 101.533 39.3372 101.402 39.5977C101.272 39.8516 101.178 40.1543 101.119 40.5059C101.061 40.8509 101.031 41.2285 101.031 41.6387ZM118.441 32.7812V47H115.014V32.7812H118.441ZM122.719 32.7812V35.4277H110.834V32.7812H122.719ZM123.557 41.8242V41.6191C123.557 40.8444 123.667 40.1315 123.889 39.4805C124.11 38.8229 124.436 38.2533 124.865 37.7715C125.295 37.2897 125.826 36.9154 126.457 36.6484C127.089 36.375 127.818 36.2383 128.645 36.2383C129.478 36.2383 130.21 36.375 130.842 36.6484C131.48 36.9154 132.014 37.2897 132.443 37.7715C132.873 38.2533 133.199 38.8229 133.42 39.4805C133.641 40.1315 133.752 40.8444 133.752 41.6191V41.8242C133.752 42.5924 133.641 43.3053 133.42 43.9629C133.199 44.6139 132.873 45.1836 132.443 45.6719C132.014 46.1536 131.483 46.528 130.852 46.7949C130.22 47.0618 129.491 47.1953 128.664 47.1953C127.837 47.1953 127.105 47.0618 126.467 46.7949C125.829 46.528 125.295 46.1536 124.865 45.6719C124.436 45.1836 124.11 44.6139 123.889 43.9629C123.667 43.3053 123.557 42.5924 123.557 41.8242ZM126.848 41.6191V41.8242C126.848 42.2214 126.877 42.5924 126.936 42.9375C126.994 43.2826 127.092 43.5853 127.229 43.8457C127.365 44.0996 127.551 44.2982 127.785 44.4414C128.02 44.5846 128.312 44.6562 128.664 44.6562C129.009 44.6562 129.296 44.5846 129.523 44.4414C129.758 44.2982 129.943 44.0996 130.08 43.8457C130.217 43.5853 130.314 43.2826 130.373 42.9375C130.432 42.5924 130.461 42.2214 130.461 41.8242V41.6191C130.461 41.235 130.432 40.8737 130.373 40.5352C130.314 40.1901 130.217 39.8874 130.08 39.627C129.943 39.36 129.758 39.1517 129.523 39.002C129.289 38.8522 128.996 38.7773 128.645 38.7773C128.299 38.7773 128.01 38.8522 127.775 39.002C127.548 39.1517 127.365 39.36 127.229 39.627C127.092 39.8874 126.994 40.1901 126.936 40.5352C126.877 40.8737 126.848 41.235 126.848 41.6191ZM140.537 38.4648V51.0625H137.246V36.4336H140.312L140.537 38.4648ZM147.021 41.5898V41.7949C147.021 42.5632 146.934 43.276 146.758 43.9336C146.582 44.5911 146.322 45.1641 145.977 45.6523C145.632 46.1406 145.202 46.5215 144.688 46.7949C144.18 47.0618 143.59 47.1953 142.92 47.1953C142.288 47.1953 141.745 47.0553 141.289 46.7754C140.833 46.4954 140.452 46.1081 140.146 45.6133C139.84 45.1185 139.593 44.5521 139.404 43.9141C139.215 43.276 139.066 42.6022 138.955 41.8926V41.6289C139.066 40.8672 139.215 40.1608 139.404 39.5098C139.593 38.8522 139.84 38.2793 140.146 37.791C140.452 37.3027 140.83 36.9219 141.279 36.6484C141.735 36.375 142.279 36.2383 142.91 36.2383C143.581 36.2383 144.17 36.3652 144.678 36.6191C145.192 36.873 145.622 37.2376 145.967 37.7129C146.318 38.1816 146.582 38.7448 146.758 39.4023C146.934 40.0599 147.021 40.7891 147.021 41.5898ZM143.73 41.7949V41.5898C143.73 41.1797 143.701 40.8053 143.643 40.4668C143.584 40.1217 143.49 39.8223 143.359 39.5684C143.236 39.3145 143.07 39.1191 142.861 38.9824C142.653 38.8457 142.396 38.7773 142.09 38.7773C141.738 38.7773 141.442 38.8327 141.201 38.9434C140.967 39.0475 140.778 39.2103 140.635 39.4316C140.498 39.6465 140.4 39.9167 140.342 40.2422C140.29 40.5612 140.267 40.9355 140.273 41.3652V42.166C140.26 42.6608 140.309 43.097 140.42 43.4746C140.531 43.8457 140.723 44.1354 140.996 44.3438C141.27 44.5521 141.641 44.6562 142.109 44.6562C142.422 44.6562 142.682 44.5846 142.891 44.4414C143.099 44.2917 143.265 44.0866 143.389 43.8262C143.512 43.5592 143.6 43.2533 143.652 42.9082C143.704 42.5632 143.73 42.1921 143.73 41.7949ZM153.963 36.4336V47H150.662V36.4336H153.963ZM150.467 33.709C150.467 33.2402 150.636 32.8561 150.975 32.5566C151.313 32.2572 151.753 32.1074 152.293 32.1074C152.833 32.1074 153.273 32.2572 153.611 32.5566C153.95 32.8561 154.119 33.2402 154.119 33.709C154.119 34.1777 153.95 34.5618 153.611 34.8613C153.273 35.1608 152.833 35.3105 152.293 35.3105C151.753 35.3105 151.313 35.1608 150.975 34.8613C150.636 34.5618 150.467 34.1777 150.467 33.709ZM163.482 44.3438V39.9883C163.482 39.6888 163.44 39.4316 163.355 39.2168C163.271 39.002 163.137 38.8359 162.955 38.7188C162.773 38.5951 162.529 38.5332 162.223 38.5332C161.975 38.5332 161.764 38.5755 161.588 38.6602C161.412 38.7448 161.279 38.8717 161.188 39.041C161.096 39.2103 161.051 39.4251 161.051 39.6855H157.76C157.76 39.1973 157.867 38.7448 158.082 38.3281C158.303 37.9049 158.616 37.5371 159.02 37.2246C159.43 36.9121 159.918 36.6712 160.484 36.502C161.057 36.3262 161.695 36.2383 162.398 36.2383C163.238 36.2383 163.987 36.3783 164.645 36.6582C165.309 36.9382 165.833 37.3581 166.217 37.918C166.601 38.4714 166.793 39.168 166.793 40.0078V44.334C166.793 45.0241 166.832 45.5482 166.91 45.9062C166.988 46.2578 167.099 46.5671 167.242 46.834V47H163.941C163.785 46.6745 163.668 46.2773 163.59 45.8086C163.518 45.3333 163.482 44.8451 163.482 44.3438ZM163.883 40.5449L163.902 42.3027H162.447C162.141 42.3027 161.881 42.3451 161.666 42.4297C161.458 42.5143 161.288 42.6315 161.158 42.7812C161.035 42.9245 160.943 43.0872 160.885 43.2695C160.833 43.4518 160.807 43.6439 160.807 43.8457C160.807 44.041 160.852 44.2168 160.943 44.373C161.041 44.5228 161.171 44.64 161.334 44.7246C161.497 44.8092 161.679 44.8516 161.881 44.8516C162.245 44.8516 162.555 44.7832 162.809 44.6465C163.069 44.5033 163.268 44.3307 163.404 44.1289C163.541 43.9271 163.609 43.7383 163.609 43.5625L164.332 44.9102C164.202 45.1706 164.052 45.4342 163.883 45.7012C163.72 45.9681 163.515 46.2155 163.268 46.4434C163.027 46.6647 162.73 46.847 162.379 46.9902C162.027 47.127 161.601 47.1953 161.1 47.1953C160.449 47.1953 159.85 47.0618 159.303 46.7949C158.762 46.528 158.329 46.1569 158.004 45.6816C157.678 45.1999 157.516 44.6465 157.516 44.0215C157.516 43.4746 157.613 42.9863 157.809 42.5566C158.01 42.127 158.313 41.7624 158.717 41.4629C159.12 41.1634 159.635 40.9355 160.26 40.7793C160.885 40.623 161.62 40.5449 162.467 40.5449H163.883Z" fill="#228B22"/>
</svg>
