<svg width="223" height="55" viewBox="0 0 223 55" fill="none" xmlns="http://www.w3.org/2000/svg">
<path d="M23.4375 39.5781C23.0231 39.5781 22.6257 39.4135 22.3326 39.1205C22.0396 38.8275 21.875 38.43 21.875 38.0156V11.9844C21.875 11.57 22.0396 11.1725 22.3326 10.8795C22.6257 10.5865 23.0231 10.4219 23.4375 10.4219C23.8519 10.4219 24.2493 10.5865 24.5424 10.8795C24.8354 11.1725 25 11.57 25 11.9844V38.0156C25 38.43 24.8354 38.8275 24.5424 39.1205C24.2493 39.4135 23.8519 39.5781 23.4375 39.5781Z" fill="#D6B5B0"/>
<path d="M23.4375 10.4219C23.1609 10.4295 22.8913 10.5103 22.6562 10.6563C22.8901 10.7912 23.0851 10.9845 23.222 11.2173C23.3589 11.4501 23.4332 11.7144 23.4375 11.9844V38.0156C23.4332 38.2856 23.3589 38.5499 23.222 38.7827C23.0851 39.0155 22.8901 39.2088 22.6562 39.3438C22.8913 39.4897 23.1609 39.5705 23.4375 39.5781C23.8519 39.5781 24.2493 39.4135 24.5424 39.1205C24.8354 38.8275 25 38.43 25 38.0156V11.9844C25 11.57 24.8354 11.1725 24.5424 10.8795C24.2493 10.5865 23.8519 10.4219 23.4375 10.4219Z" fill="#C4A19D"/>
<path d="M39.0625 0H33.8594C30.6822 0.00413427 27.6363 1.2681 25.3897 3.51471C23.1431 5.76132 21.8791 8.80719 21.875 11.9844C21.875 12.3988 22.0396 12.7962 22.3326 13.0892C22.6257 13.3823 23.0231 13.5469 23.4375 13.5469H28.6406C31.8178 13.5427 34.8637 12.2788 37.1103 10.0322C39.3569 7.78556 40.6209 4.73968 40.625 1.5625C40.625 1.1481 40.4604 0.750671 40.1674 0.457646C39.8743 0.16462 39.4769 0 39.0625 0Z" fill="#91E085"/>
<path d="M13.0156 0H7.8125C7.3981 0 7.00067 0.16462 6.70765 0.457646C6.41462 0.750671 6.25 1.1481 6.25 1.5625C6.25413 4.73968 7.5181 7.78556 9.76471 10.0322C12.0113 12.2788 15.0572 13.5427 18.2344 13.5469H25C25.2079 11.8498 25.0532 10.1279 24.5459 8.49513C24.0387 6.86233 23.1907 5.35583 22.0578 4.07525C20.9249 2.79467 19.5331 1.76921 17.9743 1.06668C16.4155 0.36416 14.7254 0.000582409 13.0156 0Z" fill="#6EC45F"/>
<path d="M23.4375 23.4375C17.2215 23.4375 11.2601 25.9068 6.86469 30.3022C2.4693 34.6976 0 40.659 0 46.875H46.875C46.875 40.659 44.4057 34.6976 40.0103 30.3022C35.6149 25.9068 29.6535 23.4375 23.4375 23.4375Z" fill="#B5E3FF"/>
<path d="M13.5625 41.9062C13.5596 41.1679 13.6542 40.4324 13.8437 39.7188C14.4031 37.6744 14.4162 35.519 13.8815 33.468C13.3468 31.417 12.2832 29.5423 10.7969 28.0313L10.2812 27.5C7.11728 29.646 4.52632 32.5335 2.73428 35.9106C0.94224 39.2877 0.00353038 43.0519 0 46.875H15.25C14.1597 45.4476 13.5669 43.7024 13.5625 41.9062ZM28.7031 34.9062C28.7012 35.5617 28.6384 36.2155 28.5156 36.8594C28.346 37.6702 28.3517 38.5079 28.5323 39.3163C28.7128 40.1248 29.0641 40.8853 29.5625 41.5469C30.0617 42.2118 30.6954 42.7642 31.4223 43.168C32.1492 43.5718 32.9529 43.818 33.7812 43.8906L36.7031 44.125C37.1376 44.1634 37.55 44.3336 37.8851 44.6128C38.2202 44.8921 38.462 45.267 38.5781 45.6875C38.6904 46.1016 38.8531 46.5004 39.0625 46.875H46.875C46.875 40.659 44.4057 34.6976 40.0103 30.3022C35.6149 25.9068 29.6535 23.4375 23.4375 23.4375C22.6719 23.4375 21.875 23.4375 21.1562 23.5469L25.8438 28.0781C26.7545 28.9659 27.4771 30.028 27.9684 31.2012C28.4596 32.3743 28.7095 33.6344 28.7031 34.9062Z" fill="#91E085"/>
<path d="M42 44.0469C42.0008 44.9927 41.9382 45.9375 41.8125 46.875H46.875C46.875 46.1406 46.875 45.4375 46.7656 44.7188C46.7656 44.5156 46.7656 44.2969 46.6875 44.0938C46.625 43.5625 46.5469 43.0417 46.4531 42.5312C46.4531 42.3281 46.4531 42.125 46.3437 41.9219C46.1875 41.2344 46.0312 40.5625 45.8281 39.9063C45.6265 39.2592 45.3918 38.623 45.125 38C45.0469 37.7969 44.9687 37.6094 44.875 37.4219C44.6719 36.9688 44.4531 36.5156 44.2187 36.0781L43.9375 35.5312C43.6094 34.9375 43.2656 34.3594 42.8906 33.7969C42.5265 33.2567 42.1354 32.7352 41.7188 32.2344C41.5918 32.066 41.4562 31.9043 41.3125 31.75C41 31.375 40.6719 31.0156 40.3281 30.6719C40.1903 30.5133 40.0443 30.362 39.8906 30.2188C39.4219 29.75 38.9219 29.2969 38.4219 28.875L38.3125 28.7969C37.8281 28.3906 37.3125 28.0156 36.75 27.6563L36.2031 27.2969C35.7969 27.0312 35.3906 26.7813 34.9687 26.5469L34.4062 26.2344C33.8125 25.9219 33.2031 25.625 32.5938 25.3594C35.5019 27.5329 37.8654 30.3523 39.4977 33.5953C41.1301 36.8384 41.9867 40.4162 42 44.0469Z" fill="#6EC45F"/>
<path d="M62.9492 22.2188V36.4375H59.5215V22.2188H62.9492ZM68.4766 28.1367V30.7734H61.9727V28.1367H68.4766ZM69.0332 22.2188V24.8652H61.9727V22.2188H69.0332ZM71.6777 31.2617V31.0566C71.6777 30.2819 71.7884 29.569 72.0098 28.918C72.2311 28.2604 72.5566 27.6908 72.9863 27.209C73.416 26.7272 73.9466 26.3529 74.5781 26.0859C75.2096 25.8125 75.9388 25.6758 76.7656 25.6758C77.599 25.6758 78.3314 25.8125 78.9629 26.0859C79.6009 26.3529 80.1348 26.7272 80.5645 27.209C80.9941 27.6908 81.3197 28.2604 81.541 28.918C81.7624 29.569 81.873 30.2819 81.873 31.0566V31.2617C81.873 32.0299 81.7624 32.7428 81.541 33.4004C81.3197 34.0514 80.9941 34.6211 80.5645 35.1094C80.1348 35.5911 79.6042 35.9655 78.9727 36.2324C78.3411 36.4993 77.612 36.6328 76.7852 36.6328C75.9583 36.6328 75.2259 36.4993 74.5879 36.2324C73.9499 35.9655 73.416 35.5911 72.9863 35.1094C72.5566 34.6211 72.2311 34.0514 72.0098 33.4004C71.7884 32.7428 71.6777 32.0299 71.6777 31.2617ZM74.9688 31.0566V31.2617C74.9688 31.6589 74.998 32.0299 75.0566 32.375C75.1152 32.7201 75.2129 33.0228 75.3496 33.2832C75.4863 33.5371 75.6719 33.7357 75.9062 33.8789C76.1406 34.0221 76.4336 34.0938 76.7852 34.0938C77.1302 34.0938 77.4167 34.0221 77.6445 33.8789C77.8789 33.7357 78.0645 33.5371 78.2012 33.2832C78.3379 33.0228 78.4355 32.7201 78.4941 32.375C78.5527 32.0299 78.582 31.6589 78.582 31.2617V31.0566C78.582 30.6725 78.5527 30.3112 78.4941 29.9727C78.4355 29.6276 78.3379 29.3249 78.2012 29.0645C78.0645 28.7975 77.8789 28.5892 77.6445 28.4395C77.4102 28.2897 77.1172 28.2148 76.7656 28.2148C76.4206 28.2148 76.1309 28.2897 75.8965 28.4395C75.6686 28.5892 75.4863 28.7975 75.3496 29.0645C75.2129 29.3249 75.1152 29.6276 75.0566 29.9727C74.998 30.3112 74.9688 30.6725 74.9688 31.0566ZM84.9277 31.2617V31.0566C84.9277 30.2819 85.0384 29.569 85.2598 28.918C85.4811 28.2604 85.8066 27.6908 86.2363 27.209C86.666 26.7272 87.1966 26.3529 87.8281 26.0859C88.4596 25.8125 89.1888 25.6758 90.0156 25.6758C90.849 25.6758 91.5814 25.8125 92.2129 26.0859C92.8509 26.3529 93.3848 26.7272 93.8145 27.209C94.2441 27.6908 94.5697 28.2604 94.791 28.918C95.0124 29.569 95.123 30.2819 95.123 31.0566V31.2617C95.123 32.0299 95.0124 32.7428 94.791 33.4004C94.5697 34.0514 94.2441 34.6211 93.8145 35.1094C93.3848 35.5911 92.8542 35.9655 92.2227 36.2324C91.5911 36.4993 90.862 36.6328 90.0352 36.6328C89.2083 36.6328 88.4759 36.4993 87.8379 36.2324C87.1999 35.9655 86.666 35.5911 86.2363 35.1094C85.8066 34.6211 85.4811 34.0514 85.2598 33.4004C85.0384 32.7428 84.9277 32.0299 84.9277 31.2617ZM88.2188 31.0566V31.2617C88.2188 31.6589 88.248 32.0299 88.3066 32.375C88.3652 32.7201 88.4629 33.0228 88.5996 33.2832C88.7363 33.5371 88.9219 33.7357 89.1562 33.8789C89.3906 34.0221 89.6836 34.0938 90.0352 34.0938C90.3802 34.0938 90.6667 34.0221 90.8945 33.8789C91.1289 33.7357 91.3145 33.5371 91.4512 33.2832C91.5879 33.0228 91.6855 32.7201 91.7441 32.375C91.8027 32.0299 91.832 31.6589 91.832 31.2617V31.0566C91.832 30.6725 91.8027 30.3112 91.7441 29.9727C91.6855 29.6276 91.5879 29.3249 91.4512 29.0645C91.3145 28.7975 91.1289 28.5892 90.8945 28.4395C90.6602 28.2897 90.3672 28.2148 90.0156 28.2148C89.6706 28.2148 89.3809 28.2897 89.1465 28.4395C88.9186 28.5892 88.7363 28.7975 88.5996 29.0645C88.4629 29.3249 88.3652 29.6276 88.3066 29.9727C88.248 30.3112 88.2188 30.6725 88.2188 31.0566ZM104.662 34.0156V21.4375H107.973V36.4375H105.004L104.662 34.0156ZM98.1777 31.2812V31.0762C98.1777 30.2754 98.2656 29.5462 98.4414 28.8887C98.6172 28.2246 98.8776 27.6549 99.2227 27.1797C99.5677 26.6979 99.9974 26.3268 100.512 26.0664C101.026 25.806 101.618 25.6758 102.289 25.6758C102.888 25.6758 103.412 25.8158 103.861 26.0957C104.311 26.3691 104.695 26.7533 105.014 27.248C105.333 27.7428 105.593 28.3223 105.795 28.9863C105.997 29.6439 106.15 30.3535 106.254 31.1152V31.3594C106.15 32.0755 105.997 32.7526 105.795 33.3906C105.593 34.0221 105.333 34.582 105.014 35.0703C104.695 35.5586 104.307 35.9427 103.852 36.2227C103.402 36.4961 102.875 36.6328 102.27 36.6328C101.599 36.6328 101.007 36.4993 100.492 36.2324C99.9844 35.9655 99.5579 35.5911 99.2129 35.1094C98.8743 34.6276 98.6172 34.0612 98.4414 33.4102C98.2656 32.7591 98.1777 32.0495 98.1777 31.2812ZM101.469 31.0762V31.2812C101.469 31.6784 101.495 32.0462 101.547 32.3848C101.599 32.7233 101.687 33.0228 101.811 33.2832C101.941 33.5371 102.11 33.7357 102.318 33.8789C102.533 34.0221 102.797 34.0938 103.109 34.0938C103.533 34.0938 103.881 33.9928 104.154 33.791C104.434 33.5892 104.639 33.3027 104.77 32.9316C104.906 32.5605 104.965 32.1243 104.945 31.623V30.8516C104.958 30.4219 104.929 30.0443 104.857 29.7188C104.786 29.3867 104.672 29.11 104.516 28.8887C104.366 28.6673 104.174 28.5013 103.939 28.3906C103.712 28.2734 103.441 28.2148 103.129 28.2148C102.823 28.2148 102.562 28.2865 102.348 28.4297C102.139 28.5729 101.97 28.7747 101.84 29.0352C101.71 29.2891 101.615 29.5918 101.557 29.9434C101.498 30.2884 101.469 30.666 101.469 31.0762ZM118.879 22.2188V36.4375H115.451V22.2188H118.879ZM123.156 22.2188V24.8652H111.271V22.2188H123.156ZM123.994 31.2617V31.0566C123.994 30.2819 124.105 29.569 124.326 28.918C124.548 28.2604 124.873 27.6908 125.303 27.209C125.732 26.7272 126.263 26.3529 126.895 26.0859C127.526 25.8125 128.255 25.6758 129.082 25.6758C129.915 25.6758 130.648 25.8125 131.279 26.0859C131.917 26.3529 132.451 26.7272 132.881 27.209C133.311 27.6908 133.636 28.2604 133.857 28.918C134.079 29.569 134.189 30.2819 134.189 31.0566V31.2617C134.189 32.0299 134.079 32.7428 133.857 33.4004C133.636 34.0514 133.311 34.6211 132.881 35.1094C132.451 35.5911 131.921 35.9655 131.289 36.2324C130.658 36.4993 129.928 36.6328 129.102 36.6328C128.275 36.6328 127.542 36.4993 126.904 36.2324C126.266 35.9655 125.732 35.5911 125.303 35.1094C124.873 34.6211 124.548 34.0514 124.326 33.4004C124.105 32.7428 123.994 32.0299 123.994 31.2617ZM127.285 31.0566V31.2617C127.285 31.6589 127.314 32.0299 127.373 32.375C127.432 32.7201 127.529 33.0228 127.666 33.2832C127.803 33.5371 127.988 33.7357 128.223 33.8789C128.457 34.0221 128.75 34.0938 129.102 34.0938C129.447 34.0938 129.733 34.0221 129.961 33.8789C130.195 33.7357 130.381 33.5371 130.518 33.2832C130.654 33.0228 130.752 32.7201 130.811 32.375C130.869 32.0299 130.898 31.6589 130.898 31.2617V31.0566C130.898 30.6725 130.869 30.3112 130.811 29.9727C130.752 29.6276 130.654 29.3249 130.518 29.0645C130.381 28.7975 130.195 28.5892 129.961 28.4395C129.727 28.2897 129.434 28.2148 129.082 28.2148C128.737 28.2148 128.447 28.2897 128.213 28.4395C127.985 28.5892 127.803 28.7975 127.666 29.0645C127.529 29.3249 127.432 29.6276 127.373 29.9727C127.314 30.3112 127.285 30.6725 127.285 31.0566ZM140.975 27.9023V40.5H137.684V25.8711H140.75L140.975 27.9023ZM147.459 31.0273V31.2324C147.459 32.0007 147.371 32.7135 147.195 33.3711C147.02 34.0286 146.759 34.6016 146.414 35.0898C146.069 35.5781 145.639 35.959 145.125 36.2324C144.617 36.4993 144.028 36.6328 143.357 36.6328C142.726 36.6328 142.182 36.4928 141.727 36.2129C141.271 35.9329 140.89 35.5456 140.584 35.0508C140.278 34.556 140.031 33.9896 139.842 33.3516C139.653 32.7135 139.503 32.0397 139.393 31.3301V31.0664C139.503 30.3047 139.653 29.5983 139.842 28.9473C140.031 28.2897 140.278 27.7168 140.584 27.2285C140.89 26.7402 141.268 26.3594 141.717 26.0859C142.173 25.8125 142.716 25.6758 143.348 25.6758C144.018 25.6758 144.607 25.8027 145.115 26.0566C145.63 26.3105 146.059 26.6751 146.404 27.1504C146.756 27.6191 147.02 28.1823 147.195 28.8398C147.371 29.4974 147.459 30.2266 147.459 31.0273ZM144.168 31.2324V31.0273C144.168 30.6172 144.139 30.2428 144.08 29.9043C144.021 29.5592 143.927 29.2598 143.797 29.0059C143.673 28.752 143.507 28.5566 143.299 28.4199C143.09 28.2832 142.833 28.2148 142.527 28.2148C142.176 28.2148 141.88 28.2702 141.639 28.3809C141.404 28.485 141.215 28.6478 141.072 28.8691C140.936 29.084 140.838 29.3542 140.779 29.6797C140.727 29.9987 140.704 30.373 140.711 30.8027V31.6035C140.698 32.0983 140.747 32.5345 140.857 32.9121C140.968 33.2832 141.16 33.5729 141.434 33.7812C141.707 33.9896 142.078 34.0938 142.547 34.0938C142.859 34.0938 143.12 34.0221 143.328 33.8789C143.536 33.7292 143.702 33.5241 143.826 33.2637C143.95 32.9967 144.038 32.6908 144.09 32.3457C144.142 32.0007 144.168 31.6296 144.168 31.2324ZM154.4 25.8711V36.4375H151.1V25.8711H154.4ZM150.904 23.1465C150.904 22.6777 151.074 22.2936 151.412 21.9941C151.751 21.6947 152.19 21.5449 152.73 21.5449C153.271 21.5449 153.71 21.6947 154.049 21.9941C154.387 22.2936 154.557 22.6777 154.557 23.1465C154.557 23.6152 154.387 23.9993 154.049 24.2988C153.71 24.5983 153.271 24.748 152.73 24.748C152.19 24.748 151.751 24.5983 151.412 24.2988C151.074 23.9993 150.904 23.6152 150.904 23.1465ZM163.92 33.7812V29.4258C163.92 29.1263 163.878 28.8691 163.793 28.6543C163.708 28.4395 163.575 28.2734 163.393 28.1562C163.21 28.0326 162.966 27.9707 162.66 27.9707C162.413 27.9707 162.201 28.013 162.025 28.0977C161.85 28.1823 161.716 28.3092 161.625 28.4785C161.534 28.6478 161.488 28.8626 161.488 29.123H158.197C158.197 28.6348 158.305 28.1823 158.52 27.7656C158.741 27.3424 159.053 26.9746 159.457 26.6621C159.867 26.3496 160.355 26.1087 160.922 25.9395C161.495 25.7637 162.133 25.6758 162.836 25.6758C163.676 25.6758 164.424 25.8158 165.082 26.0957C165.746 26.3757 166.27 26.7956 166.654 27.3555C167.038 27.9089 167.23 28.6055 167.23 29.4453V33.7715C167.23 34.4616 167.27 34.9857 167.348 35.3438C167.426 35.6953 167.536 36.0046 167.68 36.2715V36.4375H164.379C164.223 36.112 164.105 35.7148 164.027 35.2461C163.956 34.7708 163.92 34.2826 163.92 33.7812ZM164.32 29.9824L164.34 31.7402H162.885C162.579 31.7402 162.318 31.7826 162.104 31.8672C161.895 31.9518 161.726 32.069 161.596 32.2188C161.472 32.362 161.381 32.5247 161.322 32.707C161.27 32.8893 161.244 33.0814 161.244 33.2832C161.244 33.4785 161.29 33.6543 161.381 33.8105C161.479 33.9603 161.609 34.0775 161.771 34.1621C161.934 34.2467 162.117 34.2891 162.318 34.2891C162.683 34.2891 162.992 34.2207 163.246 34.084C163.507 33.9408 163.705 33.7682 163.842 33.5664C163.979 33.3646 164.047 33.1758 164.047 33L164.77 34.3477C164.639 34.6081 164.49 34.8717 164.32 35.1387C164.158 35.4056 163.952 35.653 163.705 35.8809C163.464 36.1022 163.168 36.2845 162.816 36.4277C162.465 36.5645 162.038 36.6328 161.537 36.6328C160.886 36.6328 160.287 36.4993 159.74 36.2324C159.2 35.9655 158.767 35.5944 158.441 35.1191C158.116 34.6374 157.953 34.084 157.953 33.459C157.953 32.9121 158.051 32.4238 158.246 31.9941C158.448 31.5645 158.751 31.1999 159.154 30.9004C159.558 30.6009 160.072 30.373 160.697 30.2168C161.322 30.0605 162.058 29.9824 162.904 29.9824H164.32Z" fill="#6EC45F"/>
</svg>
