<?xml version="1.0" standalone="no"?>
<!DOCTYPE svg PUBLIC "-//W3C//DTD SVG 20010904//EN"
 "http://www.w3.org/TR/2001/REC-SVG-20010904/DTD/svg10.dtd">
<svg version="1.0" xmlns="http://www.w3.org/2000/svg"
 width="450.000000pt" height="325.000000pt" viewBox="0 0 450.000000 325.000000"
 preserveAspectRatio="xMidYMid meet">
<metadata>
Created by potrace 1.10, written by Peter Selinger 2001-2011
</metadata>
<g transform="translate(0.000000,325.000000) scale(0.100000,-0.100000)"
fill="#000000" stroke="none">
<path d="M4475 2161 c-10 -9 -296 -170 -505 -284 -133 -72 -431 -217 -498
-241 -85 -30 -112 -32 -207 -11 -278 62 -311 65 -419 40 -85 -20 -96 -25 -96
-41 0 -32 51 -49 146 -49 81 0 96 -3 124 -23 17 -13 34 -21 37 -18 4 3 2 6 -4
6 -6 0 -13 9 -16 20 -3 12 -14 20 -26 20 -11 0 -25 10 -32 22 -10 18 -13 19
-20 6 -6 -11 -26 -15 -81 -14 -83 2 -105 10 -87 32 6 8 17 13 23 13 6 -1 20 2
31 7 52 23 347 -5 410 -39 35 -18 165 -14 208 6 21 10 45 16 53 13 8 -3 12 -2
9 3 -3 5 5 13 17 17 13 4 59 24 102 45 44 21 83 36 88 33 4 -3 8 -1 8 4 0 5
17 17 37 28 21 10 64 34 96 53 32 18 64 34 70 35 7 1 44 21 84 44 39 23 76 42
81 42 5 0 15 7 22 15 7 9 19 14 27 11 9 -4 11 -1 7 6 -5 8 -2 9 10 5 10 -4 15
-3 11 3 -3 6 -1 10 6 10 7 0 20 6 28 14 9 7 50 31 91 52 41 21 78 42 81 47 4
5 12 7 18 3 6 -4 20 5 33 19 12 14 30 25 40 25 10 0 18 7 18 15 0 17 -11 19
-25 6z"/>
<path d="M1496 1813 c-3 -4 7 -18 24 -32 36 -31 79 -137 52 -126 -101 41 -213
-13 -248 -118 -21 -63 -14 -68 77 -51 80 16 178 56 292 119 106 60 177 76 177
40 0 -7 -31 -42 -69 -78 -65 -61 -170 -124 -260 -155 -56 -20 -28 -24 45 -7
112 25 194 55 271 96 167 90 162 4 -7 -111 -75 -51 -106 -66 -208 -101 l-87
-29 83 6 c117 8 217 44 274 98 31 30 78 35 78 9 0 -54 -151 -170 -272 -208
-44 -14 -90 -25 -104 -25 -16 0 -23 -4 -18 -11 12 -20 143 -4 204 25 113 53
169 14 60 -43 -21 -11 -40 -17 -43 -15 -3 3 -14 1 -26 -5 -11 -6 -32 -13 -48
-15 -15 -2 -41 -9 -58 -15 -16 -7 -46 -11 -67 -9 -20 2 -34 0 -32 -3 8 -14
-150 -21 -275 -14 -170 10 -311 12 -311 3 0 -4 -12 -3 -26 2 -16 7 -23 7 -19
0 3 -6 -1 -10 -10 -10 -9 0 -27 -7 -40 -16 -13 -9 -28 -13 -33 -10 -6 3 -15
-1 -22 -9 -8 -9 -21 -13 -34 -10 -15 5 -17 4 -8 -3 11 -7 7 -11 -15 -16 -15
-4 -59 -22 -98 -40 -159 -75 -184 -86 -190 -86 -3 0 -41 -18 -85 -39 -43 -22
-81 -37 -85 -33 -3 4 -9 2 -13 -4 -11 -17 -123 -65 -135 -57 -5 3 -7 2 -4 -3
3 -6 -9 -16 -26 -23 -81 -34 -157 -73 -157 -82 0 -5 26 3 58 17 31 14 96 43
144 65 48 21 118 53 155 70 126 59 467 211 541 241 72 28 76 29 235 26 381 -7
501 3 662 55 82 26 107 39 141 73 59 58 87 136 87 244 0 193 -80 331 -201 347
-53 7 -144 -21 -186 -57 l-34 -30 -11 43 c-18 71 -73 141 -95 120z m363 -113
c12 0 21 -5 21 -11 0 -5 4 -8 9 -4 5 3 13 0 17 -6 5 -8 2 -10 -7 -5 -8 4 -2
-2 14 -14 15 -12 27 -28 27 -36 0 -9 4 -13 9 -10 5 4 8 -5 7 -19 -2 -13 1 -22
5 -19 5 3 9 0 9 -5 0 -10 -22 -15 -57 -14 -7 1 -13 -3 -13 -8 0 -5 -9 -9 -21
-9 -11 0 -17 -4 -14 -10 6 -10 -7 -14 -34 -11 -7 2 -10 -2 -7 -7 3 -6 -6 -13
-21 -17 -16 -3 -30 -10 -33 -14 -3 -5 -13 -5 -23 -2 -16 6 -15 9 10 21 15 8
45 34 67 57 21 24 42 40 46 38 13 -8 19 47 8 71 -9 19 -16 21 -47 17 -20 -3
-52 -13 -71 -21 -19 -8 -38 -14 -42 -14 -5 1 -8 -3 -8 -9 0 -6 -6 -9 -14 -6
-8 3 -17 0 -19 -8 -3 -7 -22 -18 -41 -25 -20 -6 -34 -16 -30 -21 3 -5 2 -8 -3
-7 -4 1 -18 -3 -31 -10 -12 -7 -27 -10 -32 -7 -6 3 -10 2 -10 -3 0 -13 -105
-43 -125 -35 -13 4 -16 3 -11 -5 10 -16 -6 -15 -23 1 -11 10 -13 10 -7 0 4 -8
1 -13 -8 -13 -11 0 -14 8 -11 30 5 39 10 46 57 81 34 24 51 29 99 29 32 0 61
-5 65 -11 4 -8 9 -7 15 2 8 12 11 11 19 -1 5 -8 10 -10 10 -4 0 6 14 17 30 24
17 7 30 16 30 21 0 21 124 51 152 37 9 -4 26 -8 37 -8z m138 -264 c-2 -29 -4
-31 -35 -28 -18 3 -35 9 -39 15 -4 7 0 8 13 3 10 -4 15 -4 11 0 -9 10 19 41
37 41 10 0 14 -11 13 -31z m-77 -38 c0 -6 -3 -9 -6 -6 -3 3 -22 -9 -42 -28
-20 -19 -41 -34 -47 -33 -5 0 -4 3 3 6 6 2 10 8 7 13 -3 5 3 11 14 15 10 3 26
14 36 25 20 22 35 26 35 8z m-117 -73 c-3 -9 -8 -14 -10 -11 -3 3 -2 9 2 15 9
16 15 13 8 -4z m180 -49 c-4 -25 -10 -35 -19 -32 -9 3 -11 0 -7 -11 4 -10 2
-14 -4 -10 -7 5 -9 0 -6 -12 5 -20 -22 -37 -32 -21 -4 6 -15 10 -26 10 -24 0
-25 16 -1 29 9 5 35 28 57 49 22 22 41 39 42 38 1 -1 0 -19 -4 -40z"/>
<path d="M4464 1633 c9 -9 -152 -53 -211 -57 -11 0 -19 -4 -17 -8 3 -5 -35
-15 -86 -23 -3 0 -11 -4 -17 -8 -13 -8 -61 -18 -100 -21 -11 0 -19 -4 -17 -7
2 -4 -32 -17 -76 -28 -44 -12 -95 -28 -114 -36 -18 -8 -37 -11 -40 -7 -4 3
-10 1 -14 -6 -5 -6 -19 -13 -32 -14 -14 -2 -27 -6 -30 -9 -3 -3 -34 -19 -70
-34 -36 -16 -91 -48 -123 -72 -31 -23 -62 -43 -67 -43 -6 0 -10 -4 -10 -8 0
-11 -78 -62 -95 -62 -7 0 -26 -11 -42 -24 -45 -37 -112 -68 -141 -63 -15 2
-21 2 -13 -1 9 -2 -1 -11 -24 -22 -21 -10 -45 -15 -54 -12 -8 3 -12 1 -8 -4 6
-10 -108 -50 -130 -45 -7 1 -13 -3 -13 -8 0 -6 -13 -9 -30 -7 -16 2 -27 -1
-24 -5 3 -5 -2 -9 -11 -9 -9 0 -19 9 -22 20 -3 11 -9 17 -14 14 -5 -3 -5 -14
1 -25 10 -17 8 -19 -17 -18 -15 1 -47 -1 -70 -5 -28 -5 -43 -4 -43 3 0 6 -7 8
-16 4 -11 -4 -15 -2 -12 7 6 20 48 20 49 1 0 -11 3 -9 9 6 5 13 21 24 42 28
18 4 51 15 73 25 22 9 49 20 59 24 10 3 16 9 13 12 -3 3 -45 -8 -94 -24 -48
-17 -107 -33 -131 -37 -47 -8 -62 -26 -41 -52 12 -13 29 -15 114 -10 117 7
187 26 382 103 144 57 234 107 353 198 84 64 188 112 381 174 156 52 464 139
572 163 56 12 81 39 35 39 -12 0 -18 -3 -14 -7z"/>
<path d="M1249 1561 c-84 -42 -146 -83 -199 -130 -151 -137 -318 -197 -952
-341 -54 -12 -98 -26 -98 -30 0 -4 35 -1 78 7 42 7 85 15 94 15 9 1 15 5 13 8
-2 4 8 7 23 8 28 1 45 5 72 15 21 8 172 41 190 42 8 0 21 4 28 8 6 5 17 5 22
2 6 -3 10 -2 10 4 0 5 18 12 40 16 22 4 74 20 115 36 42 16 79 28 83 27 8 -2
138 60 197 94 22 13 57 40 79 60 21 21 43 35 49 31 6 -4 7 -1 2 7 -6 10 -4 12
9 7 13 -5 17 -3 13 7 -6 15 18 31 42 27 7 -1 10 2 7 7 -3 6 30 27 74 48 44 21
82 44 84 51 3 7 4 13 3 12 -1 0 -36 -17 -78 -38z"/>
<path d="M2900 1473 l-115 -45 -127 7 c-70 4 -136 4 -147 0 -32 -10 -27 -50 7
-64 62 -25 150 -41 217 -39 38 0 55 3 38 5 -32 4 -37 12 -36 51 1 6 -4 12 -9
12 -6 0 -8 -14 -6 -30 4 -29 3 -30 -21 -26 -14 3 -42 8 -61 11 -69 11 -130 36
-130 53 0 15 2 15 10 2 5 -8 10 -10 10 -4 0 13 38 23 58 16 7 -2 12 -12 12
-23 0 -10 5 -19 11 -19 6 0 9 8 7 18 -5 17 2 19 76 18 92 -1 156 6 156 16 0 3
17 12 38 18 20 6 46 16 57 21 12 6 27 11 35 13 8 2 23 6 33 11 12 5 25 1 40
-12 24 -21 73 -53 82 -53 18 0 -1 20 -35 35 -22 10 -42 26 -45 36 -9 27 -25
24 -155 -28z"/>
<path d="M3310 1429 c-19 -5 -64 -7 -100 -4 -62 4 -63 4 -20 -6 47 -11 132 -5
172 10 20 9 20 10 3 9 -11 0 -36 -4 -55 -9z"/>
<path d="M2841 1379 c0 -19 4 -43 9 -54 6 -13 7 -2 3 30 -7 59 -13 72 -12 24z"/>
<path d="M3320 1390 c-62 -13 -144 -57 -187 -101 -24 -23 -43 -46 -43 -51 0
-5 20 12 44 37 51 52 150 102 213 108 24 2 46 6 50 10 8 9 -31 7 -77 -3z"/>
<path d="M2448 1314 c-27 -8 -22 -49 7 -68 14 -10 61 -26 103 -37 62 -16 93
-19 157 -13 128 11 127 20 -1 20 -152 0 -212 12 -255 53 -25 23 -17 28 41 26
92 -4 90 -3 90 -35 0 -16 4 -30 9 -30 4 0 7 13 5 30 -2 20 0 28 9 24 7 -2 34
0 60 5 46 8 47 8 48 -18 1 -14 1 -29 0 -33 0 -5 4 -8 10 -8 7 0 9 12 4 36 -5
28 -3 36 7 32 7 -3 29 1 48 8 32 12 30 13 -35 6 -81 -8 -156 -8 -235 1 -30 3
-63 4 -72 1z"/>
<path d="M2888 1203 c5 -21 7 -23 10 -9 2 10 0 22 -6 28 -6 6 -7 0 -4 -19z"/>
<path d="M2798 1184 c-10 -9 -55 -14 -168 -20 -141 -7 -150 -9 -150 -38 0 -19
8 -27 38 -38 51 -18 252 -15 317 5 28 8 40 16 28 16 -12 1 -30 4 -40 7 -13 4
-14 3 -5 -4 16 -11 -51 -22 -133 -22 -40 0 -54 4 -59 17 -9 23 3 32 51 34 23
2 40 6 37 11 -3 4 0 8 5 8 6 0 11 -7 11 -15 0 -8 5 -15 10 -15 6 0 10 7 10 15
0 8 3 14 8 13 10 -3 72 20 72 26 0 8 -25 8 -32 0z m-185 -67 c4 -28 3 -29 -32
-23 -20 3 -43 6 -52 6 -9 0 -19 9 -22 20 -3 11 -1 18 3 15 5 -3 11 -2 13 2 3
5 23 8 45 9 37 0 41 -2 45 -29z"/>
<path d="M2740 1109 c0 -5 5 -7 10 -4 6 3 10 8 10 11 0 2 -4 4 -10 4 -5 0 -10
-5 -10 -11z"/>
<path d="M2921 1102 c0 -13 5 -30 13 -38 21 -20 32 -17 14 4 -9 9 -18 26 -21
37 -4 18 -5 17 -6 -3z"/>
</g>
</svg>
