<svg xmlns="http://www.w3.org/2000/svg" width="300" height="60" viewBox="0 0 485 99" version="1.1"><path d="" stroke="none" fill="#68944c" fill-rule="evenodd"/><path d="M 38.628 3.110 C 31.358 4.817, 21.219 10.997, 15.434 17.245 C 12.387 20.536, 10.086 23.419, 10.320 23.653 C 10.554 23.887, 13.781 22.936, 17.492 21.539 C 21.202 20.143, 25.394 19, 26.806 19 L 29.374 19 26.549 21.949 L 23.724 24.897 26.862 27.537 C 30.641 30.718, 30.834 32, 27.531 32 C 25.748 32, 25.223 31.584, 25.638 30.500 C 26.349 28.648, 24.400 28.502, 23.300 30.325 C 22.860 31.054, 21.712 31.940, 20.750 32.294 C 18.126 33.258, 18.646 35.292, 22.006 37.203 C 24.981 38.896, 25 38.891, 25 36.453 C 25 33.310, 27.068 33.294, 30.690 36.410 L 33.491 38.819 30.936 39.983 C 29.531 40.624, 27.350 42.816, 26.089 44.855 C 24.374 47.631, 23.139 48.555, 21.176 48.532 C 19.464 48.511, 18.433 49.107, 18.204 50.250 C 18.011 51.213, 18.368 52, 18.998 52 C 20.191 52, 23 54.421, 23 55.449 C 23 55.774, 21.200 55.122, 19 54 C 16.800 52.878, 15 51.518, 15 50.980 C 15 50.441, 14.410 50, 13.688 50 C 11.884 50, 8 44.543, 8 42.009 C 8 40.870, 7.328 39.679, 6.506 39.364 C 5.684 39.048, 5.260 38.388, 5.565 37.895 C 5.869 37.403, 5.650 37, 5.078 37 C 3.397 37, 2.547 41.908, 2.654 51 C 2.848 67.483, 11.442 82.547, 25.671 91.346 C 40.974 100.809, 62.414 100.249, 77.784 89.986 C 85.376 84.916, 94 74.481, 94 70.364 C 94 69.425, 94.727 67.855, 95.615 66.873 C 96.503 65.892, 97.297 63.750, 97.379 62.113 C 97.462 60.477, 97.860 58.807, 98.264 58.402 C 99.149 57.517, 99.248 47.810, 98.395 45.588 C 97.567 43.429, 96 44.608, 96 47.390 C 96 48.770, 95.050 50.171, 93.580 50.957 C 92.022 51.791, 91.371 52.804, 91.753 53.800 C 92.189 54.936, 91.902 55.176, 90.674 54.705 C 89.680 54.324, 88.983 54.558, 88.958 55.281 C 88.935 55.952, 88.100 54.968, 87.102 53.095 L 85.289 49.691 82.992 52.796 L 80.696 55.902 78.989 52.720 C 77.137 49.265, 71 46.889, 71 49.626 C 71 50.382, 71.730 51, 72.622 51 C 73.951 51, 74.020 51.271, 73 52.500 C 71.189 54.683, 70.241 54.367, 68.500 51 C 67.647 49.350, 66.510 48, 65.974 48 C 64.057 48, 65.050 51.203, 67.827 53.981 C 70.601 56.755, 70.620 56.851, 68.849 59.154 C 67.857 60.444, 67.033 62.400, 67.018 63.500 C 66.981 66.357, 63.311 72, 61.490 72 C 59.721 72, 57.662 67.585, 57.855 64.204 C 58.064 60.528, 55.243 57.154, 51.673 56.808 C 49.016 56.550, 48.447 56.036, 48.174 53.646 C 47.641 48.993, 54.368 43.550, 56.462 46.939 C 57.379 48.423, 65.269 47.706, 65.805 46.091 C 66.127 45.122, 65.761 44.878, 64.636 45.309 C 63.675 45.678, 62.994 45.434, 62.985 44.719 C 62.975 43.948, 62.613 44.051, 62 45 C 61.157 46.305, 61.029 46.289, 61.015 44.872 C 61.007 43.977, 60.241 42.627, 59.313 41.872 C 57.822 40.660, 57.708 40.721, 58.336 42.391 C 58.938 43.995, 58.815 44.091, 57.528 43.023 C 56.294 41.999, 55.551 42.064, 53.557 43.371 C 52.054 44.356, 50.868 44.595, 50.493 43.989 C 50.157 43.445, 50.584 43, 51.441 43 C 52.298 43, 53 42.550, 53 42 C 53 40.338, 56.878 37, 58.809 37 C 59.804 37, 61.491 36.339, 62.559 35.532 C 64.285 34.226, 64.309 34.060, 62.781 34.032 C 61.606 34.010, 61.261 33.483, 61.691 32.364 C 62.122 31.239, 61.878 30.873, 60.909 31.192 C 60.134 31.448, 59.356 32.634, 59.180 33.828 C 58.835 36.175, 58.234 36.435, 56.174 35.129 C 55.133 34.469, 55.347 33.731, 57.174 31.695 C 58.453 30.269, 60.175 29.026, 61 28.933 C 64.325 28.556, 67 29.058, 67 30.059 C 67 30.641, 66.550 30.840, 66 30.500 C 65.450 30.160, 65 30.284, 65 30.774 C 65 32.676, 66.439 32.943, 68.700 31.461 C 69.998 30.611, 72.390 29.821, 74.017 29.707 C 75.643 29.593, 77.209 28.890, 77.496 28.144 C 77.841 27.250, 78.867 27.001, 80.509 27.413 C 81.879 27.757, 83 27.651, 83 27.177 C 83 26.704, 84.800 25.777, 87 25.118 C 89.200 24.459, 91 23.586, 91 23.179 C 91 21.661, 80.841 11.855, 76.254 8.944 C 66.512 2.764, 50.606 0.297, 38.628 3.110 M 272.250 13.740 C 265.888 14.102, 264.191 15.301, 268.250 16.567 C 271.593 17.611, 271.968 18.727, 271.985 27.699 L 272 35.898 268.324 34.362 C 262.400 31.887, 256.444 33.293, 251.374 38.362 C 246.198 43.539, 244.559 48.951, 245.332 58.318 C 245.978 66.144, 248.127 70.495, 252.952 73.747 C 257.458 76.783, 265.620 76.873, 269.365 73.927 L 272 71.855 272 74.052 C 272 75.980, 272.383 76.173, 275.125 75.625 C 276.844 75.281, 279.994 75, 282.125 75 C 286.214 75, 287.376 73.593, 284.012 72.713 C 282.919 72.427, 281.569 70.996, 281.012 69.532 C 280.420 67.975, 280 55.685, 280 39.935 C 280 25.121, 279.663 13.087, 279.250 13.193 C 278.837 13.299, 275.688 13.545, 272.250 13.740 M 427.408 17.500 C 425.891 19.816, 425.891 20.184, 427.408 22.500 C 428.543 24.233, 429.953 25, 432 25 C 434.047 25, 435.457 24.233, 436.592 22.500 C 438.109 20.184, 438.109 19.816, 436.592 17.500 C 435.457 15.767, 434.047 15, 432 15 C 429.953 15, 428.543 15.767, 427.408 17.500 M 36.184 19.024 C 29.821 19.950, 26.562 22.958, 30.468 24.299 C 32.061 24.846, 32.994 26.157, 33.424 28.449 C 34.177 32.462, 36.717 35.075, 37.941 33.095 C 38.375 32.393, 39.790 31.291, 41.085 30.645 C 42.380 29.999, 44.089 28.128, 44.882 26.486 C 45.675 24.843, 46.697 22.726, 47.152 21.780 C 47.746 20.546, 47.436 19.768, 46.056 19.030 C 43.950 17.903, 43.882 17.903, 36.184 19.024 M 116 19.902 C 116 20.398, 117.350 21.275, 119 21.850 L 122 22.896 122 46.748 C 122 71.470, 121.755 73, 117.800 73 C 116.810 73, 116 73.450, 116 74 C 116 74.606, 120.333 75, 127 75 C 133.667 75, 138 74.606, 138 74 C 138 73.450, 137.137 73, 136.082 73 C 131.223 73, 131 72.448, 131 60.393 L 131 49 134.878 49 C 139.264 49, 140.944 50.492, 141.917 55.250 C 142.282 57.031, 143.237 58.615, 144.040 58.771 C 145.266 59.009, 145.450 57.209, 145.189 47.527 C 144.840 34.547, 143.532 32.246, 141.582 41.180 C 140.735 45.062, 138.342 47, 134.398 47 L 130.938 47 131.219 34.750 L 131.500 22.500 139.209 22.209 C 147.690 21.888, 150.391 23.268, 151.475 28.475 C 151.764 29.864, 152.234 32.125, 152.519 33.500 C 152.805 34.875, 153.607 36, 154.301 36 C 155.205 36, 155.619 33.580, 155.756 27.500 L 155.947 19 135.973 19 C 124.768 19, 116 19.396, 116 19.902 M 289 27.500 C 289 34.080, 289.313 36, 290.386 36 C 291.260 36, 292.019 34.361, 292.437 31.570 C 292.803 29.134, 294.011 25.984, 295.123 24.570 C 296.806 22.431, 297.972 22, 302.073 22 L 307 22 307 45.929 C 307 71.901, 306.774 73, 301.429 73 C 300.093 73, 299 73.450, 299 74 C 299 74.611, 303.667 75, 311 75 C 317.764 75, 323 74.593, 323 74.066 C 323 73.553, 321.773 72.990, 320.273 72.816 C 315.511 72.264, 315.031 69.702, 315.015 44.750 L 315 22 320 22 C 326.005 22, 328.589 24.088, 329.522 29.694 C 330.436 35.181, 330.787 36.001, 332.219 35.992 C 333.150 35.986, 333.533 33.661, 333.621 27.492 L 333.743 19 311.371 19 L 289 19 289 27.500 M 7.595 27.847 C 7.274 28.366, 7.748 29.073, 8.649 29.419 C 10.859 30.267, 11.376 29.557, 9.613 28.094 C 8.758 27.384, 7.943 27.284, 7.595 27.847 M 170.500 34.439 C 162.484 37.376, 158.315 45.882, 159.241 57.413 C 160.218 69.584, 166.498 76, 177.436 76 C 187.162 76, 192.996 71.153, 195.023 61.391 C 197.148 51.154, 193.813 39.902, 187.498 35.999 C 183.067 33.260, 175.589 32.574, 170.500 34.439 M 213.500 34.439 C 205.484 37.376, 201.315 45.882, 202.241 57.413 C 203.218 69.584, 209.498 76, 220.436 76 C 230.162 76, 235.996 71.153, 238.023 61.391 C 240.148 51.154, 236.813 39.902, 230.498 35.999 C 226.067 33.260, 218.589 32.574, 213.500 34.439 M 347.594 34.041 C 343.611 35.233, 338.289 40.614, 336.828 44.928 C 334.755 51.047, 335.417 62.223, 338.140 67.098 C 341.620 73.328, 344.901 75.335, 352.381 75.812 C 364.861 76.606, 371.002 70.678, 371.789 57.078 C 372.487 45.024, 369.476 38.483, 361.579 34.896 C 357.235 32.924, 352.332 32.624, 347.594 34.041 M 396.500 34.493 C 394.850 35.369, 392.938 36.828, 392.250 37.734 C 391.153 39.181, 391 39.048, 391 36.647 L 391 33.912 383.750 34.206 C 379.592 34.375, 376.590 34.926, 376.710 35.500 C 376.826 36.050, 377.838 36.644, 378.959 36.819 C 380.080 36.995, 381.237 38.120, 381.531 39.319 C 381.824 40.519, 381.938 51.625, 381.782 64 L 381.500 86.500 379.192 86.827 C 377.923 87.007, 377.033 87.599, 377.214 88.142 C 377.695 89.584, 397.305 89.586, 397.785 88.144 C 398 87.499, 397.127 87, 395.783 87 C 392.162 87, 391 85.120, 391 79.265 C 391 74.123, 391.078 73.971, 393.140 75.075 C 394.374 75.736, 397.819 76.036, 401.281 75.786 C 406.772 75.389, 407.605 75.006, 411.084 71.276 C 420.150 61.556, 419.989 42.401, 410.785 35.847 C 406.868 33.058, 400.362 32.441, 396.500 34.493 M 456.500 34.267 C 448.884 37.397, 446.631 40.573, 448.950 44.907 C 450.205 47.251, 454.823 47.777, 456.800 45.800 C 458.478 44.122, 458.296 40.490, 456.458 38.965 C 454.296 37.171, 455.939 35.936, 460.743 35.745 C 466.808 35.503, 468.144 37.139, 467.794 44.379 L 467.500 50.441 462.500 52.331 C 450.895 56.717, 448.929 57.925, 447.386 61.618 C 443.114 71.843, 454.732 80.120, 464.241 73.627 L 467.982 71.073 470.445 73.536 C 473.435 76.526, 477.850 76.753, 481.139 74.086 C 483.831 71.904, 483.163 70.307, 480.217 71.884 C 479.142 72.459, 477.979 72.645, 477.631 72.298 C 477.284 71.951, 476.989 66.004, 476.976 59.083 C 476.937 38.568, 474.907 34.252, 464.923 33.462 C 461.875 33.221, 458.186 33.574, 456.500 34.267 M 423 35.430 C 423 36.217, 424.012 37.005, 425.250 37.180 C 427.472 37.496, 427.503 37.718, 427.774 54.725 L 428.047 71.950 425.524 72.583 C 420.140 73.935, 423.437 75, 433 75 C 439 75, 443 74.600, 443 74 C 443 73.450, 442.190 73, 441.200 73 C 437.359 73, 437 71.229, 437 52.300 L 437 34 430 34 C 424.596 34, 423 34.326, 423 35.430 M 173.871 36.517 C 169.986 38.615, 168 44.624, 168 54.277 C 168 58.807, 168.439 64.045, 168.976 65.917 C 171.662 75.282, 180.331 76.825, 184.726 68.720 C 187.173 64.208, 187.224 45.884, 184.802 41.427 C 181.830 35.960, 178.049 34.261, 173.871 36.517 M 216.871 36.517 C 212.986 38.615, 211 44.624, 211 54.277 C 211 58.807, 211.439 64.045, 211.976 65.917 C 214.662 75.282, 223.331 76.825, 227.726 68.720 C 230.173 64.208, 230.224 45.884, 227.802 41.427 C 224.830 35.960, 221.049 34.261, 216.871 36.517 M 351.055 36.267 C 347.318 38.158, 345.117 42.887, 344.405 50.556 C 343.582 59.413, 345.361 68.452, 348.556 71.647 C 353.041 76.132, 359.223 73.839, 361.933 66.685 C 362.520 65.137, 362.990 59.737, 362.978 54.685 C 362.952 43.917, 360.764 37.621, 356.480 35.993 C 353.356 34.805, 354.010 34.772, 351.055 36.267 M 259.655 37.133 C 256.319 39.073, 254.046 45.881, 254.022 54.007 C 253.986 66.290, 257.190 73, 263.093 73 C 270.617 73, 272 69.902, 272 53.050 C 272 41.333, 271.796 39.796, 270 38 C 267.808 35.808, 262.675 35.378, 259.655 37.133 M 394.400 39.400 L 391 42.800 391 56.785 C 391 70.546, 391.040 70.796, 393.465 72.385 C 398.278 75.539, 403.960 73.695, 406.632 68.111 C 408.799 63.585, 409.619 49.985, 408.072 44.254 C 405.765 35.712, 400.099 33.701, 394.400 39.400 M 462.034 55.802 C 457.741 57.951, 456.272 59.317, 455.185 62.174 C 452.240 69.911, 459.255 75.134, 465.433 69.804 C 467.935 67.646, 468.085 67.042, 467.802 60.284 L 467.500 53.068 462.034 55.802 M 24.991 57.523 C 24.159 59.712, 24.331 60.895, 25.854 63.476 C 27.402 66.101, 27.661 67.999, 27.253 73.713 C 26.922 78.336, 27.134 80.965, 27.875 81.423 C 28.608 81.876, 29 81.125, 29 79.271 C 29 77.186, 30.312 75.132, 33.906 71.592 C 39.994 65.596, 40.849 62.490, 36.964 60.481 C 35.438 59.692, 33.526 58.383, 32.716 57.573 C 31.905 56.762, 30.069 55.804, 28.636 55.445 C 26.436 54.893, 25.868 55.217, 24.991 57.523 M 88.583 57.866 C 88.288 58.343, 88.956 59.555, 90.067 60.560 C 91.853 62.177, 92.011 62.192, 91.436 60.694 C 91.079 59.762, 90.272 58.993, 89.643 58.985 C 89.014 58.976, 89.175 58.533, 90 58 C 90.901 57.418, 91.025 57.025, 90.309 57.015 C 89.654 57.007, 88.877 57.390, 88.583 57.866 M 93.648 58.474 C 93.340 59.278, 93.471 60.173, 93.939 60.462 C 94.407 60.752, 95.043 60.331, 95.352 59.526 C 95.660 58.722, 95.529 57.827, 95.061 57.538 C 94.593 57.248, 93.957 57.669, 93.648 58.474" stroke="none" fill="#64944c" fill-rule="evenodd"/></svg>